<svg width="49" height="42" viewBox="0 0 49 42" fill="none" xmlns="http://www.w3.org/2000/svg">
<path d="M31.09 0.919997H43.21V2.36L39.01 3.74V41H35.71L8.23 8.06V38.06L13.21 39.56V41H0.85V39.56L5.65 38.06V2.9L0.43 2.3V0.919997H10.27L35.71 31.7V3.74L31.09 2.36V0.919997ZM35.5295 0.499999C35.5295 0.499999 39.6495 0.679999 47.8895 1.04L48.2495 11.96H46.3295L44.2895 4.1C42.1295 3.18 39.5695 2.72 36.6095 2.72C31.7695 2.72 27.7495 4.32 24.5495 7.52C21.3895 10.68 19.8095 15.3 19.8095 21.38C19.8095 27.46 21.3495 31.96 24.4295 34.88C27.5495 37.76 31.5295 39.2 36.3695 39.2C39.6095 39.2 42.5095 38.72 45.0695 37.76L47.2895 30.86L48.9695 30.92L48.6095 39.92C44.0095 40.88 40.0495 41.36 36.7295 41.36C33.4495 41.36 30.7295 41.18 28.5695 40.82C26.4495 40.46 24.3695 39.82 22.3295 38.9C20.2895 37.98 18.5495 36.8 17.1095 35.36C15.7095 33.92 14.5695 32.06 13.6895 29.78C12.8495 27.46 12.4295 24.64 12.4295 21.32C12.4295 18 13.0695 14.94 14.3495 12.14C15.6695 9.3 17.4495 7.06 19.6895 5.42C24.1295 2.14 29.4095 0.499999 35.5295 0.499999Z" fill="#F4F4F4"/>
</svg>
