<svg width="382" height="177" viewBox="0 0 382 177" fill="none" xmlns="http://www.w3.org/2000/svg">
<path d="M48.108 115.32C48.2003 115.265 48.4621 114.822 48.8934 113.989C49.3246 113.156 49.7637 112.213 50.2106 111.158C51.0547 109.064 51.5086 107.439 51.5724 106.281C51.5863 105.87 51.5711 105.59 51.5268 105.44C51.4972 105.34 51.4326 105.305 51.3329 105.335L51.1944 105.417C50.3606 105.989 49.5096 108.288 48.6414 112.315C48.4742 113.123 48.3399 113.814 48.2383 114.386C48.1293 114.934 48.0858 115.245 48.108 115.32ZM21.2275 174.248C21.053 174.3 20.8989 174.237 20.765 174.06L20.6611 173.846C20.3805 172.899 20.6812 170.573 21.5633 166.868C23.3928 159.953 26.093 152.957 29.6639 145.88C30.6769 143.898 31.8021 141.884 33.0395 139.836C34.2768 137.788 36.1961 134.793 38.7973 130.85C39.5009 129.747 40.3398 128.413 41.314 126.85C42.2882 125.287 43.1798 123.857 43.9887 122.56L46.7575 118.038C46.9404 117.008 47.0942 116.108 47.2189 115.339C47.4683 113.801 47.6867 112.57 47.8742 111.647C48.0866 110.716 48.3665 109.739 48.7137 108.714C49.5864 106.259 50.4092 104.917 51.182 104.688C51.3814 104.629 51.5656 104.656 51.7345 104.768C51.8786 104.888 51.9875 105.073 52.0613 105.322C52.4601 106.669 51.4706 109.782 49.0927 114.662C48.7843 115.269 48.5147 115.823 48.2838 116.325C48.0456 116.803 47.92 117.111 47.907 117.25C47.3206 119.756 47.0327 123.407 47.0434 128.204C47.079 132.993 47.2338 137.543 47.5077 141.855C47.7816 146.167 47.9887 148.56 48.129 149.033C48.1364 149.058 48.14 149.071 48.14 149.071C48.1751 149.006 48.2509 148.712 48.3672 148.19C48.491 147.692 48.6512 147.089 48.848 146.38C49.0521 145.696 49.2562 145.012 49.4602 144.327C52.8052 133.466 56.0264 124.201 59.1236 116.531C60.1385 114.007 61.5292 110.829 63.2958 106.998C65.0549 103.141 66.6105 99.8332 67.9624 97.0736C71.2978 90.3911 73.7693 86.5135 75.3768 85.4407C75.6639 85.2201 75.8698 85.0913 75.9945 85.0544C76.0693 85.0322 76.1228 85.0299 76.1551 85.0475C76.1773 85.1223 76.0485 85.2824 75.7687 85.528C75.7013 85.5751 75.6464 85.6185 75.6039 85.6582C75.1967 86.0229 74.8818 86.3331 74.6593 86.5888C74.4294 86.8196 74.1454 87.1884 73.8075 87.6953C72.2405 90.0034 69.9518 94.315 66.9414 100.63C63.931 106.945 61.289 112.948 59.0155 118.638C57.7014 121.983 56.1416 126.512 54.3361 132.226C52.5233 137.915 51.023 142.875 49.8354 147.104C49.7171 147.438 49.6114 147.767 49.5181 148.093C49.3491 148.713 49.1917 149.234 49.0457 149.657C48.7567 150.42 48.4377 150.854 48.0887 150.957C47.6649 151.082 47.2951 150.704 46.9794 149.821L46.8507 149.249C46.5212 147.313 46.2823 144.401 46.1339 140.513C46.0031 136.593 45.9203 132.835 45.8855 129.238C45.8682 125.61 45.9187 123.263 46.037 122.197C46.0407 121.844 46.0518 121.515 46.0703 121.211C46.1147 120.629 46.1295 120.312 46.1147 120.263C46.0898 120.27 46.0422 120.338 45.972 120.468C45.8917 120.654 45.6036 121.146 45.1077 121.944C44.6968 122.662 44.1645 123.565 43.5107 124.654C42.8745 125.71 42.2609 126.705 41.6699 127.64C36.6992 135.485 33.694 140.307 32.6543 142.106C28.9182 148.717 25.9377 155.363 23.713 162.041C22.8773 164.621 22.2183 167.203 21.7362 169.786C21.5163 171.424 21.4728 172.467 21.6057 172.916L21.7096 173.129C21.7733 173.436 21.7525 173.686 21.6472 173.88C21.5419 174.074 21.4021 174.196 21.2275 174.248ZM62.7204 131.939C62.3215 132.057 61.9591 132.07 61.6332 131.976C61.2999 131.858 61.0594 131.55 60.9117 131.051L60.8051 130.554C60.6898 129.341 61.1987 127.672 62.3317 125.546C62.9707 124.408 63.4896 123.78 63.8885 123.662L64.0492 123.655C64.3603 123.698 64.5417 123.807 64.5934 123.981C64.6525 124.181 64.5708 124.409 64.3482 124.664C64.0509 124.942 63.6954 125.481 63.2817 126.282C62.8856 127.05 62.5379 127.844 62.2387 128.665C61.9321 129.461 61.7682 130.052 61.7469 130.438L61.8313 130.86C61.9864 131.384 62.3433 131.536 62.9019 131.316C63.2758 131.205 63.6687 131.021 64.0805 130.763C64.4849 130.481 64.8307 130.229 65.1178 130.009C65.2527 129.915 65.3538 129.844 65.4212 129.797C67.965 128.04 70.5942 126.068 73.3088 123.881C74.8896 122.626 76.2155 121.61 77.2865 120.832L77.5635 120.668C77.6383 120.646 77.6831 120.66 77.6979 120.71C77.7126 120.76 77.6351 120.864 77.4652 121.023C77.1356 121.283 76.696 121.63 76.1467 122.064C74.818 123.163 73.1772 124.489 71.2243 126.044C69.289 127.567 67.4363 128.956 65.6663 130.212C65.5739 130.267 65.4728 130.337 65.3629 130.424C65.0333 130.685 64.6289 130.967 64.1497 131.272C63.6705 131.576 63.194 131.799 62.7204 131.939ZM65.7902 121.431C65.7653 121.438 65.7117 121.44 65.6295 121.437C65.5723 121.427 65.5238 121.401 65.4841 121.358C65.4121 121.298 65.365 121.231 65.3429 121.156C65.3133 121.057 65.3249 120.958 65.3775 120.861C65.4302 120.764 65.4939 120.705 65.5687 120.683L65.7293 120.676C65.9084 120.731 66.0201 120.834 66.0644 120.983C66.0866 121.058 66.0714 121.144 66.0187 121.241C65.991 121.33 65.9148 121.394 65.7902 121.431ZM76.1556 128.041C75.8315 128.137 75.5388 128.156 75.2775 128.098C75.0089 128.014 74.8155 127.773 74.6973 127.375C74.653 127.225 74.6175 127.059 74.5907 126.877C74.5391 125.971 74.8845 124.757 75.6269 123.235C76.2262 122.054 76.8897 121.044 77.6173 120.205C78.3375 119.341 78.9594 118.831 79.4829 118.676C80.1311 118.484 80.5788 118.623 80.8262 119.092L80.9301 119.305C80.9818 119.48 80.985 119.628 80.9398 119.75C80.8871 119.847 80.811 119.91 80.7112 119.939C80.5866 119.976 80.4361 119.926 80.2598 119.788C80.1157 119.668 79.8817 119.656 79.5576 119.752C79.2086 119.856 78.7742 120.174 78.2543 120.708C77.5738 121.614 77.0211 122.632 76.5963 123.761C76.1466 124.898 75.8557 125.838 75.7236 126.582C75.7107 126.722 75.719 126.841 75.7485 126.941C75.7854 127.066 75.8736 127.135 76.013 127.148C76.1275 127.168 76.272 127.152 76.4465 127.1C76.6459 127.041 76.838 126.957 77.0226 126.848C77.7087 126.51 78.9529 125.721 80.7552 124.482C85.2611 121.385 88.4563 119.218 90.3408 117.982C92.2179 116.721 93.3186 116.042 93.6426 115.946L93.7659 115.95L93.8144 115.977C93.8365 116.051 93.6168 116.225 93.1551 116.497C92.8855 116.686 92.5822 116.898 92.2452 117.133L88.0735 120.077C82.3165 124.169 78.7617 126.632 77.409 127.466C76.9972 127.724 76.5794 127.915 76.1556 128.041ZM97.8776 108.306C97.9201 108.266 98.1389 107.998 98.5341 107.501C98.9293 107.004 99.4145 106.4 99.9898 105.687C104.633 99.7562 107.812 95.2485 109.529 92.1639C111.245 89.0793 112.097 86.8746 112.085 85.5496L112.078 85.389C112.048 85.2893 111.925 85.2851 111.708 85.3765C111.234 85.5168 110.508 86.1792 109.531 87.3637C108.545 88.5233 107.502 89.9441 106.4 91.6263C105.722 92.7222 104.882 94.1911 103.882 96.0329C102.875 97.8499 101.926 99.6359 101.036 101.391C100.188 103.106 99.4442 104.669 98.8043 106.079C98.1643 107.489 97.8554 108.231 97.8776 108.306ZM95.4642 119.108C95.539 119.086 95.7574 118.953 96.1193 118.711C96.4813 118.468 96.7684 118.247 96.9808 118.049C97.1858 117.825 97.2735 117.664 97.244 117.564C97.2218 117.489 97.1235 117.478 96.949 117.529C96.8493 117.559 96.6932 117.673 96.4808 117.871C96.2611 118.045 96.045 118.231 95.8327 118.429C95.6203 118.628 95.4915 118.788 95.4462 118.91L95.3894 119.13L95.4642 119.108ZM97.1381 125.446C96.8639 125.527 96.6248 125.543 96.4207 125.495C95.948 125.364 95.5704 125.096 95.2879 124.692C95.0054 124.288 94.7903 123.836 94.6426 123.338C94.4506 122.689 94.3607 122.065 94.3727 121.465C94.3663 121.169 94.3709 120.91 94.3866 120.688C94.37 120.449 94.3543 120.305 94.3396 120.255L94.3285 120.217C94.2537 120.239 94.0787 120.427 93.8036 120.78C93.4961 121.115 93.1697 121.523 92.8243 122.005C92.4467 122.469 92.0852 122.943 91.7398 123.425C91.5219 123.787 91.3178 124.105 91.1276 124.379C90.9051 124.634 90.7638 124.798 90.7038 124.87L90.4268 125.034C90.1526 125.115 89.955 124.997 89.834 124.681C89.7897 124.531 89.7916 124.354 89.8396 124.15C89.9052 123.914 90.1942 123.15 90.7068 121.86C91.0207 121.089 91.3624 120.228 91.7318 119.278C92.1538 118.231 92.4766 117.444 92.7001 116.917C92.8912 116.372 93.0408 115.962 93.1489 115.686C93.2818 115.402 93.4273 115.115 93.5852 114.824C93.7108 114.516 93.9116 114.05 94.1877 113.426C94.4639 112.801 94.878 111.865 95.4302 110.617C98.28 103.943 101.113 98.2634 103.928 93.5789C106.761 88.862 109.135 85.9354 111.049 84.7989C111.258 84.6826 111.438 84.6023 111.587 84.558C111.662 84.5358 111.741 84.5262 111.823 84.5289C111.905 84.5317 112.003 84.5433 112.118 84.5636C112.387 84.6467 112.565 84.8378 112.654 85.137C112.957 86.1591 112.191 88.3791 110.356 91.7969C108.571 95.2 104.777 100.608 98.9731 108.022C98.2602 108.911 97.7538 109.536 97.4537 109.896C97.2136 110.184 97.0248 110.416 96.8872 110.592C96.7745 110.761 96.6568 110.959 96.534 111.185C96.4361 111.404 96.3017 111.728 96.1309 112.158C95.9951 112.524 95.7892 113.019 95.5131 113.643C95.164 114.479 94.7711 115.395 94.3343 116.392C93.9225 117.382 93.5545 118.291 93.2303 119.119C92.8988 119.922 92.6878 120.446 92.5973 120.689L92.6084 120.727L93.366 119.852C94.8739 118.076 96.0765 117.056 96.974 116.79C97.2233 116.716 97.4287 116.723 97.5903 116.811C97.8091 116.908 97.9406 117.032 97.9849 117.182C98.0366 117.356 98.0048 117.569 97.8893 117.82C97.7961 118.146 97.5458 118.491 97.1386 118.856C96.724 119.196 96.3372 119.446 95.978 119.607C95.8533 119.644 95.761 119.698 95.701 119.77C95.6336 119.817 95.5846 119.927 95.5542 120.098C95.5486 120.263 95.5403 120.509 95.5292 120.838C95.5032 121.849 95.5863 122.678 95.7783 123.327C95.9777 124 96.2726 124.4 96.6632 124.529C96.8349 124.559 97.0205 124.545 97.2199 124.486C97.893 124.286 98.7166 123.771 99.6907 122.94C100.69 122.102 101.697 121.153 102.711 120.093C102.772 120.021 102.844 119.946 102.929 119.866C104.351 118.442 105.854 116.925 107.439 115.317C109.016 113.684 110.396 112.163 111.579 110.755C111.699 110.611 111.808 110.525 111.908 110.495C112.008 110.465 112.069 110.488 112.091 110.563C112.113 110.638 112.073 110.731 111.97 110.843C109.88 113.306 107.482 115.968 104.778 118.83C104.198 119.436 103.652 120.018 103.139 120.577C102.015 121.723 100.914 122.768 99.8375 123.71C98.7609 124.653 97.8611 125.231 97.1381 125.446ZM117.432 100.968L118.936 99.18L125.622 90.8543C126 90.3899 126.472 89.7889 127.04 89.0512C127.608 88.3135 128.155 87.5957 128.68 86.8978C129.198 86.1749 129.582 85.6408 129.833 85.2955C130.541 84.2993 131.317 83.1203 132.161 81.7585C133.005 80.3968 133.625 79.3318 134.021 78.5636C134.39 77.8851 134.678 77.2572 134.887 76.6802C135.113 76.0709 135.208 75.7039 135.171 75.5792C135.149 75.5044 135.025 75.5003 134.801 75.5667C134.651 75.611 134.484 75.6876 134.3 75.7966C134.108 75.8806 133.932 75.9734 133.772 76.0749C130.93 78.3811 126.999 83.83 121.978 92.4217C121.402 93.4059 120.75 94.548 120.024 95.8479C119.322 97.1405 118.706 98.3125 118.177 99.3641C117.666 100.383 117.417 100.918 117.432 100.968ZM108.247 121.179C108.364 121.117 108.469 121.059 108.561 121.004C108.646 120.925 108.765 120.822 108.917 120.695C109.045 120.576 109.236 120.398 109.491 120.16C110.193 119.599 110.846 118.646 111.451 117.301C111.699 116.767 111.809 116.45 111.779 116.35C111.764 116.3 111.719 116.286 111.645 116.308C111.495 116.353 111.196 116.672 110.749 117.265C110.268 117.841 109.807 118.48 109.363 119.18C108.913 119.856 108.595 120.384 108.409 120.765L108.247 121.179ZM105.945 125.765C105.82 125.802 105.69 125.773 105.553 125.678C105.488 125.643 105.441 125.576 105.412 125.476C105.375 125.351 105.403 125.126 105.496 124.8C105.597 124.499 105.789 124.049 106.073 123.45C106.268 123.012 106.55 122.36 106.916 121.492C107.283 120.624 107.642 119.731 107.994 118.813C109.232 115.762 110.832 112.007 112.792 107.549C113.487 105.96 114.434 103.984 115.633 101.623C116.832 99.2611 117.913 97.1916 118.878 95.4143C123.647 86.9786 127.771 80.9439 131.25 77.3101C132.747 75.8634 133.881 75.0256 134.654 74.7967C135.178 74.6416 135.511 74.7598 135.654 75.1513C135.75 75.4754 135.692 75.967 135.481 76.6262C135.234 77.3501 134.639 78.5434 133.694 80.2062C132.774 81.8615 131.899 83.3004 131.068 84.5228C130.342 85.5513 129.23 87.0603 127.731 89.0499C126.25 91.0071 125.042 92.5582 124.107 93.703C123.824 94.0307 123.386 94.5671 122.794 95.3121C122.218 96.0249 121.617 96.7861 120.989 97.5958C120.378 98.3731 119.726 99.1902 119.03 100.047C118.353 100.871 117.804 101.536 117.384 102.04C116.861 102.656 116.382 103.326 115.946 104.052C115.51 104.778 114.972 105.845 114.332 107.255C113.685 108.64 112.786 110.642 111.637 113.26L110.499 115.875L110.1 116.725C110.44 116.407 110.716 116.149 110.929 115.951C111.141 115.752 111.315 115.606 111.449 115.512C111.552 115.4 111.666 115.326 111.79 115.289C111.865 115.267 111.935 115.273 111.999 115.308C112.285 115.359 112.469 115.522 112.55 115.796C112.661 116.17 112.585 116.735 112.32 117.491C112.23 117.735 112.192 117.882 112.207 117.931L112.255 117.958L114.919 115.827C115.323 115.544 115.91 115.099 116.679 114.492C117.448 113.884 118.23 113.273 119.024 112.658C119.091 112.611 119.146 112.568 119.189 112.528C120.227 111.732 121.493 110.788 122.986 109.695C124.479 108.602 125.857 107.624 127.121 106.762C128.376 105.875 129.104 105.401 129.303 105.342L129.411 105.432C129.463 105.607 129.106 105.957 128.339 106.482C126.867 107.461 125.274 108.583 123.561 109.85C121.841 111.092 120.582 112.061 119.786 112.758C119.616 112.917 119.403 113.115 119.148 113.353C118.886 113.567 118.629 113.751 118.377 113.907L112.114 118.854C111.529 119.352 110.957 119.983 110.396 120.745C109.911 121.486 109.343 122.224 108.693 122.958C108.043 123.693 107.554 124.15 107.228 124.328C107.135 124.382 107.029 124.482 106.909 124.626C106.771 124.802 106.646 124.975 106.534 125.144C106.316 125.507 106.119 125.714 105.945 125.765ZM129.899 106.956L130.026 106.837C130.044 106.804 130.045 106.763 130.03 106.713C130.041 106.656 130.038 106.602 130.023 106.553L129.99 106.44C129.911 106.355 129.846 106.32 129.796 106.335L129.695 106.406C129.66 106.47 129.657 106.553 129.687 106.652L129.78 106.828C129.834 106.921 129.874 106.963 129.899 106.956ZM127.209 111.332C127.334 111.295 127.694 110.863 128.289 110.036L129.266 108.526C129.266 108.526 129.262 108.514 129.255 108.489C129.36 108.295 129.439 108.149 129.492 108.052C129.519 107.963 129.522 107.881 129.5 107.806C129.478 107.731 129.418 107.667 129.321 107.615C129.162 107.445 129.046 107.371 128.971 107.393C128.871 107.423 128.729 107.628 128.543 108.008C128.325 108.371 128.109 108.787 127.896 109.257C127.683 109.727 127.499 110.161 127.346 110.559C127.193 110.957 127.131 111.206 127.16 111.305L127.209 111.332ZM127.257 112.456L127.145 112.49C127.07 112.512 126.992 112.521 126.91 112.519C126.803 112.523 126.717 112.508 126.652 112.473C126.408 112.382 126.25 112.213 126.176 111.963C125.88 110.966 126.568 109.122 128.238 106.431C128.646 105.794 128.958 105.336 129.173 105.055C129.413 104.767 129.621 104.598 129.795 104.546C129.995 104.487 130.227 104.54 130.493 104.705C130.705 104.778 130.836 104.902 130.888 105.076C130.954 105.301 130.928 105.715 130.809 106.32C130.761 106.524 130.734 106.708 130.728 106.873C130.715 107.012 130.713 107.094 130.72 107.119L130.731 107.157C130.803 107.217 130.95 107.254 131.172 107.27C131.411 107.253 131.687 107.226 132.001 107.187C132.308 107.123 132.586 107.055 132.835 106.981C133.184 106.877 133.622 106.707 134.148 106.47C134.699 106.225 135.552 105.81 136.707 105.224C137.862 104.637 139.533 103.777 141.718 102.641L145.113 100.781C145.347 100.658 145.514 100.581 145.614 100.552C145.764 100.507 145.833 100.514 145.823 100.571C145.838 100.621 145.794 100.702 145.692 100.813C145.614 100.918 145.529 100.997 145.437 101.051C144.883 101.378 144.199 101.771 143.386 102.228C142.363 102.803 141.251 103.444 140.051 104.152C139.699 104.337 139.356 104.507 139.022 104.66C137.155 105.592 135.737 106.297 134.767 106.775C133.789 107.227 133.001 107.542 132.403 107.719C131.904 107.867 131.466 107.942 131.087 107.946L130.359 107.958C129.755 109.032 129.184 109.988 128.645 110.825C128.099 111.637 127.637 112.181 127.257 112.456ZM125.705 144.358C126.154 144.225 126.731 143.837 127.435 143.195C128.639 142.133 130.047 140.387 131.66 137.957C133.254 135.56 135.111 132.216 137.231 127.928C137.514 127.329 137.81 126.726 138.118 126.119C138.966 124.404 139.788 122.737 140.583 121.118C141.378 119.5 142.041 118.124 142.573 116.99C143.087 115.889 143.334 115.301 143.311 115.226C143.244 115.273 142.901 115.578 142.281 116.141C141.669 116.729 140.929 117.436 140.062 118.263C139.17 119.096 138.303 119.923 137.461 120.742C136.619 121.56 135.95 122.233 135.456 122.759C131.559 126.815 128.611 130.549 126.612 133.961C124.588 137.381 123.695 140.181 123.934 142.361C123.973 142.675 124.022 142.931 124.081 143.131C124.125 143.28 124.175 143.401 124.229 143.494C124.291 143.611 124.369 143.737 124.463 143.872C124.793 144.343 125.207 144.506 125.705 144.358ZM126.103 145.013L125.643 145.108C124.654 145.157 123.982 144.583 123.628 143.387C123.539 143.088 123.472 142.769 123.426 142.43C123.138 139.993 124.186 136.849 126.57 132.997C128.937 129.178 132.388 125.037 136.924 120.575L139.465 118.033L142.003 115.613L143.606 114.162C145.482 109.783 147.376 105.467 149.288 101.212C149.59 100.581 149.838 100.046 150.034 99.6085C150.222 99.1459 150.313 98.9022 150.305 98.8772C150.305 98.8772 150.228 98.9816 150.072 99.1902C149.917 99.3989 149.72 99.6472 149.48 99.9353C149.265 100.216 149.041 100.513 148.808 100.826C148.593 101.106 148.408 101.351 148.253 101.56C147.855 102.139 147.527 102.588 147.269 102.909C147.029 103.197 146.833 103.404 146.68 103.53C146.528 103.657 146.377 103.742 146.228 103.787C146.078 103.831 145.958 103.839 145.869 103.811C145.779 103.784 145.663 103.71 145.519 103.59C145.352 103.395 145.229 103.16 145.147 102.886C144.874 101.964 144.964 100.758 145.418 99.2674C145.759 98.4069 146.092 97.9287 146.416 97.8327L146.577 97.8258C146.741 97.8313 146.846 97.9089 146.89 98.0585C146.956 98.2828 146.882 98.6711 146.666 99.2232C146.582 99.4919 146.491 99.7767 146.39 100.078C146.314 100.371 146.256 100.633 146.215 100.862C146.179 101.198 146.156 101.53 146.145 101.859C146.158 102.18 146.191 102.428 146.243 102.602C146.272 102.702 146.3 102.748 146.325 102.741C146.35 102.734 146.383 102.71 146.426 102.67C146.493 102.623 146.578 102.544 146.681 102.432C146.776 102.295 146.926 102.115 147.131 101.892C147.328 101.644 147.573 101.327 147.866 100.942C148.184 100.55 148.57 100.069 149.025 99.5004C149.643 98.7479 150.158 98.1072 150.571 97.5782C150.977 97.0242 151.533 96.2492 152.242 95.253C152.954 94.3639 153.51 93.8603 153.909 93.7422C154.009 93.7126 154.091 93.7154 154.156 93.7505C154.228 93.8105 154.278 93.8904 154.308 93.9901C154.338 94.0898 154.342 94.1969 154.322 94.3114C154.326 94.4185 154.291 94.4832 154.217 94.5053C153.992 94.5718 153.347 95.6441 152.282 97.7224C151.216 99.8006 150.068 102.242 148.838 105.047C148.496 105.907 148.151 106.755 147.802 107.591C147.446 108.402 147.134 109.09 146.868 109.657C146.77 109.876 146.69 110.063 146.627 110.217C146.432 110.654 146.245 111.076 146.066 111.481C145.888 111.886 145.771 112.179 145.716 112.358L145.523 112.944C146.16 112.348 146.695 111.864 147.127 111.492C147.457 111.232 147.792 110.943 148.131 110.625C148.326 110.459 148.567 110.266 148.854 110.045C149.244 109.713 149.621 109.384 149.986 109.059C150.535 108.625 151.359 107.974 152.458 107.107C153.574 106.207 154.749 105.275 155.983 104.314L159.785 101.357C160.164 101.082 160.515 100.802 160.837 100.516C163.469 98.598 165.994 96.4128 168.414 93.9607C168.558 93.8093 168.668 93.7225 168.743 93.7004C168.793 93.6856 168.838 93.6995 168.877 93.7419L168.926 93.7683C168.956 93.868 168.829 94.0817 168.546 94.4095C168.257 94.7123 167.878 95.082 167.411 95.5187C166.441 96.4567 165.25 97.5147 163.836 98.6927C162.44 99.8384 161.137 100.889 159.929 101.843C158.745 102.79 157.976 103.398 157.621 103.665C157.579 103.705 157.545 103.729 157.52 103.736C154.851 105.801 152.831 107.403 151.459 108.541C150.106 109.647 148.65 110.865 147.091 112.194L144.929 114.096C142.973 118.661 140.819 123.245 138.467 127.846C136.098 132.48 134.095 136.016 132.457 138.453C129.841 142.346 127.723 144.533 126.103 145.013ZM179.425 84.9638C179.5 84.9417 179.593 84.8461 179.706 84.6772C184.856 79.8165 188.695 75.981 191.225 73.1707C193.748 70.3354 195.411 67.9853 196.214 66.1204C196.737 64.7724 196.91 63.7993 196.733 63.201C196.614 62.8021 196.356 62.6617 195.957 62.7799C194.636 63.1713 192.498 65.201 189.544 68.8689C186.615 72.5296 183.783 76.7446 181.047 81.5141C179.857 83.6293 179.287 84.7741 179.339 84.9486L179.425 84.9638ZM167.641 97.3622C167.741 97.3327 168.012 97.1033 168.454 96.674C169.391 95.7184 170.285 94.708 171.135 93.6426C171.693 92.9621 171.928 92.4724 171.839 92.1732C171.817 92.0984 171.756 92.0758 171.656 92.1053C171.237 92.338 170.697 92.8504 170.037 93.6425C169.394 94.4023 168.809 95.1723 168.281 95.9524C167.753 96.7326 167.511 97.1974 167.555 97.347C167.562 97.3719 167.591 97.377 167.641 97.3622ZM173.221 110.434C172.758 110.517 172.394 110.434 172.131 110.187C171.851 109.972 171.581 109.564 171.321 108.963L171.244 108.701C170.545 106.25 171.839 100.457 175.126 91.3217C175.46 90.4363 175.623 89.9812 175.616 89.9562C175.516 89.9858 174.4 91.252 172.267 93.7548C169.414 97.1218 167.7 98.8903 167.127 99.0601C166.928 99.1192 166.718 99.0998 166.5 99.0019C166.248 98.8865 166.101 98.754 166.056 98.6044C165.946 98.2305 166.12 97.5823 166.579 96.66C167.013 95.745 167.588 94.8019 168.303 93.8307C169.467 92.2658 170.472 91.3578 171.32 91.1068C171.669 91.0034 171.994 91.002 172.295 91.1027C172.551 91.3252 172.693 91.4864 172.723 91.5861C172.752 91.6858 172.792 91.7283 172.842 91.7135C172.892 91.6987 173.579 90.9528 174.904 89.4756C175.849 88.545 176.442 87.8946 176.685 87.5244C176.921 87.1292 177.234 86.494 177.626 85.6188C179.385 81.7623 181.596 77.9212 184.259 74.0953C186.94 70.2371 189.561 67.0473 192.122 64.526C193.584 63.144 194.738 62.3274 195.586 62.0763C196.459 61.8179 197.028 62.1374 197.294 63.0348C197.589 64.032 197.24 65.464 196.248 67.3308C195.368 69.0287 193.935 71.0122 191.95 73.2815C189.957 75.5259 186.741 78.8107 182.3 83.136C179.816 85.5529 178.409 87.0273 178.079 87.5591C177.668 88.2774 176.983 89.9037 176.026 92.4381C175.389 94.2264 174.777 96.0485 174.187 97.9042C172.497 103.367 171.862 106.945 172.282 108.637C172.393 109.011 172.512 109.274 172.638 109.427C172.765 109.579 172.99 109.607 173.314 109.511C173.763 109.378 174.378 108.938 175.16 108.192C175.95 107.47 177.194 106.179 178.894 104.32C184.892 97.7435 189.197 92.9159 191.81 89.837C193.946 87.2519 195.113 85.9299 195.313 85.8708C195.363 85.856 195.395 85.8736 195.41 85.9234C195.476 86.1478 193.652 88.4102 189.936 92.7106C180.782 103.367 175.541 109.109 174.213 109.937C173.826 110.187 173.495 110.352 173.221 110.434ZM241.441 50.9747C241.79 50.8714 242.416 50.6046 243.319 50.1744C244.239 49.7119 245.275 49.134 246.425 48.4407C251.371 45.457 254.738 42.9547 256.526 40.9338C257.031 40.3503 257.445 39.7802 257.768 39.2235C258.084 38.6418 258.226 38.2065 258.195 37.9175L258.162 37.8053C258.095 37.581 257.893 37.3561 257.555 37.1308C257.242 36.8981 256.824 36.8593 256.301 37.0144C255.435 37.2978 254.393 37.8507 253.172 38.6733C251.951 39.4959 250.476 40.787 248.747 42.5466C248.329 42.9685 247.719 43.6102 246.917 44.4715C246.115 45.3329 245.277 46.2589 244.405 47.2495C243.55 48.2078 242.809 49.0507 242.184 49.7782C241.577 50.4734 241.247 50.8695 241.194 50.9664L241.205 51.0038C241.213 51.0287 241.291 51.0191 241.441 50.9747ZM225.67 105.392L224.874 105.587C223.705 105.852 222.553 105.854 221.419 105.594C220.309 105.326 219.449 104.848 218.839 104.161C218.29 103.592 217.887 102.87 217.628 101.998C217.503 101.574 217.4 101.089 217.32 100.544C216.804 97.0629 217.419 92.5014 219.164 86.8594C220.909 81.2173 223.552 75.3094 227.093 69.1356C229.513 64.9478 232.52 60.4507 236.112 55.6443C236.31 55.396 236.461 55.1749 236.567 54.981C236.69 54.7548 236.744 54.6168 236.729 54.5669C236.721 54.542 236.705 54.5332 236.68 54.5406C234.956 55.4037 233.09 56.3361 231.082 57.3377C226.255 59.7167 221.638 62.0739 217.232 64.4095C213.7 66.2152 210.641 68.1109 208.057 70.0967C205.49 72.0502 203.603 74.1953 202.397 76.5321C202.112 76.942 201.87 77.1765 201.67 77.2355C201.471 77.2946 201.325 77.2157 201.234 76.9987C201.175 76.7993 201.213 76.5167 201.349 76.1511C202.743 73.6233 204.897 71.3309 207.813 69.274C210.747 67.1849 213.875 65.2956 217.198 63.6062C220.748 61.7682 223.732 60.2607 226.149 59.0837C229.125 57.687 232.775 55.8195 237.099 53.4811C237.393 53.2854 237.672 53.0809 237.934 52.8677C238.221 52.647 238.564 52.3419 238.964 51.9523C239.357 51.5378 239.883 50.9345 240.543 50.1423C245.279 44.6177 249.164 40.6604 252.198 38.2702C253.709 37.1448 254.988 36.4271 256.035 36.1169C257.555 35.6665 258.525 36.0571 258.944 37.2888L259.055 37.6628C259.151 37.9868 259.017 38.5417 258.653 39.3274C257.416 42.1073 252.759 45.7918 244.681 50.3809L240 52.703L238 55.2885C232.62 62.1158 228.295 68.8472 225.027 75.4826C221.752 82.0931 219.666 88.1885 218.77 93.7688C218.323 97.0196 218.373 99.5674 218.919 101.412C219.192 102.335 219.569 103.01 220.048 103.437C220.758 104.094 221.521 104.519 222.337 104.711C223.185 104.921 224.133 104.871 225.18 104.561L225.33 104.516C227.224 103.955 229.202 102.895 231.262 101.336C233.347 99.7689 235.175 98.2512 236.746 96.7824C240.71 93.4117 244.957 89.5776 249.487 85.2801C254.017 80.9825 259.6 75.4783 266.235 68.7675C267.784 67.2238 268.996 66.0514 269.871 65.25C270.763 64.4163 271.407 63.8458 271.804 63.5384C272.194 63.206 272.451 63.0214 272.576 62.9845L272.699 62.9886L272.71 63.026C272.717 63.051 272.712 63.0796 272.695 63.1119C272.702 63.1368 272.676 63.1853 272.616 63.2573C272.573 63.297 272.501 63.3727 272.398 63.4844C272.321 63.5887 272.197 63.7203 272.027 63.8791C271.882 64.0305 271.682 64.2253 271.427 64.4635C271.24 64.6546 270.934 64.9486 270.509 65.3456C269.377 66.4673 267.904 67.9477 266.09 69.7868C251.415 84.6007 240.399 94.9684 233.041 100.89C231.376 102.224 229.992 103.23 228.892 103.909C227.791 104.587 226.717 105.081 225.67 105.392ZM271.266 66.0571C271.333 66.01 271.388 65.9666 271.43 65.9269C271.48 65.9122 271.539 65.8812 271.606 65.8341C271.641 65.7695 271.714 65.6938 271.824 65.607C271.926 65.4953 272.075 65.3564 272.27 65.1902C272.457 64.9991 272.708 64.7484 273.023 64.4382L274.185 63.2805C274.178 63.2556 274.174 63.2431 274.174 63.2431C273.881 62.896 273.66 62.7445 273.511 62.7888C273.369 62.8581 273.147 63.0727 272.847 63.4328C272.547 63.7928 272.258 64.1903 271.98 64.6251C271.702 65.06 271.522 65.4117 271.439 65.6804L271.266 66.0571ZM275.42 69.0973C275.071 69.2007 274.771 69.1947 274.52 69.0793C274.204 68.9287 273.98 68.6291 273.847 68.1804C273.596 67.3328 273.712 66.0781 274.196 64.4162L274.378 63.793L274.329 63.7667C274.254 63.7888 273.943 64.1115 273.396 64.7346C273.336 64.8067 273.276 64.8787 273.216 64.9507C272.156 66.1324 271.451 66.775 271.102 66.8783C271.027 66.9005 270.945 66.8977 270.856 66.87C270.734 66.8248 270.624 66.7758 270.527 66.7232C270.448 66.6382 270.393 66.5459 270.364 66.4462C270.334 66.3465 270.322 66.2144 270.328 66.0501C270.37 65.5497 270.596 64.9403 271.007 64.222C271.393 63.5111 271.841 62.9175 272.35 62.4411C272.697 62.1485 273.021 61.9578 273.32 61.8692C273.818 61.7215 274.199 61.9071 274.461 62.4261L274.669 62.8526C274.834 62.5867 274.969 62.3568 275.074 62.163C275.583 61.2259 275.975 60.7167 276.249 60.6355L276.372 60.6396C276.479 60.635 276.544 60.6701 276.566 60.7449C276.61 60.8945 276.429 61.382 276.023 62.2074C275.471 63.4556 275.053 64.6097 274.771 65.6696C274.506 66.6972 274.447 67.4603 274.595 67.9589C274.654 68.1583 274.707 68.2917 274.754 68.3591C274.819 68.3942 274.924 68.4307 275.071 68.4685L275.344 68.4284C275.643 68.3398 276.147 68.0278 276.856 67.4923C277.566 66.9569 278.703 66.0369 280.269 64.7324C285.314 60.5263 288.17 58.3111 288.835 58.0868L288.948 58.0535C289.122 58.0019 289.22 58.0134 289.243 58.0882C289.272 58.1879 289.148 58.3195 288.871 58.4829C288.385 58.7626 287.473 59.4393 286.137 60.513C284.819 61.5543 282.792 63.2258 280.057 65.5273C279.175 66.3038 278.387 66.9846 277.693 67.5699C276.991 68.1303 276.548 68.465 276.363 68.5739C276.034 68.8342 275.719 69.0087 275.42 69.0973ZM298.572 62.8089C298.148 62.9345 297.723 62.9653 297.298 62.9016C296.872 62.8379 296.509 62.6199 296.209 62.2478C295.656 61.571 295.243 60.7714 294.97 59.849C294.889 59.5748 294.805 59.3828 294.718 59.2729C294.656 59.1556 294.584 59.0956 294.502 59.0928L294.229 59.133C293.755 59.2733 293.001 59.7949 291.967 60.6978C290.958 61.5933 289.918 62.6605 288.848 63.8995C288.128 64.7636 287.631 65.2363 287.357 65.3176C287.157 65.3766 286.992 65.2764 286.861 65.017L286.779 64.8785C286.713 64.6541 286.741 64.2931 286.865 63.7955C286.981 63.2729 287.218 62.4706 287.576 61.3885C288.472 58.4655 289.144 56.8428 289.591 56.5206L289.905 56.3462C290.205 56.2576 290.415 56.3716 290.536 56.6883L290.558 56.7631C290.609 56.9376 290.589 57.1878 290.495 57.5137C290.395 57.8147 290.2 58.347 289.911 59.1105C288.919 61.438 288.453 62.7015 288.512 62.9009L288.56 62.9273C288.61 62.9125 288.681 62.8779 288.773 62.8234C288.858 62.744 288.952 62.6485 289.055 62.5367C289.662 61.8416 290.462 61.0624 291.454 60.1992C292.445 59.336 293.209 58.7571 293.746 58.4626L293.97 58.3962C294.519 58.2337 294.976 58.315 295.344 58.64C295.398 58.7324 295.499 58.9332 295.644 59.2425C295.79 59.5518 295.931 59.8897 296.067 60.2563C296.331 60.9645 296.666 61.5023 297.073 61.8698C297.473 62.2124 298.01 62.284 298.683 62.0846C298.857 62.0329 299.053 61.9614 299.27 61.87C299.537 61.7638 299.809 61.629 300.086 61.4656C300.355 61.2773 300.727 60.9773 301.202 60.5655C301.702 60.1464 302.43 59.5375 303.386 58.739C304.335 57.9155 305.619 56.803 307.238 55.4016C307.518 55.156 307.831 54.8869 308.178 54.5942C308.763 54.0957 309.271 53.6604 309.703 53.2884C310.171 52.8517 310.556 52.5069 310.861 52.2539C311.183 51.9686 311.421 51.7628 311.573 51.6363C311.743 51.4775 311.874 51.3709 311.966 51.3164C312.059 51.2619 312.13 51.2273 312.18 51.2125C312.304 51.1756 312.374 51.1821 312.389 51.2319C312.426 51.3566 311.978 51.8145 311.047 52.6057L308.768 54.6635L307.663 55.601C307.638 55.6084 307.498 55.7312 307.243 55.9694C306.981 56.1827 306.684 56.4605 306.351 56.8031C302.687 60.0851 300.348 61.9846 299.335 62.5015C299.1 62.6252 298.846 62.7277 298.572 62.8089ZM311.98 52.6952C312.08 52.6656 312.371 52.4575 312.853 52.0706C313.208 51.8029 313.581 51.4618 313.974 51.0473C314.383 50.6004 314.726 50.2007 315.001 49.848C315.294 49.463 315.426 49.2207 315.396 49.1209L315.348 49.0946C315.248 49.1242 315.067 49.2456 314.805 49.4588C314.56 49.6398 314.289 49.8692 313.992 50.1471C313.814 50.2809 313.618 50.4882 313.403 50.7689C313.18 51.0246 312.97 51.2766 312.773 51.525C312.738 51.5896 312.699 51.6418 312.656 51.6815C312.166 52.3148 311.928 52.6564 311.943 52.7063L311.98 52.6952ZM311.673 57.4233C311.274 57.5415 310.922 57.5913 310.619 57.5728C310.29 57.5617 310.039 57.4463 309.865 57.2265L309.739 56.9384C309.643 56.6144 309.642 56.1536 309.737 55.5563C309.806 54.9663 310.053 54.2425 310.476 53.3848C311.211 51.8383 312.121 50.6063 313.205 49.6886C313.892 49.0784 314.497 48.6957 315.021 48.5406C315.544 48.3855 315.886 48.4876 316.047 48.8468C316.121 49.0961 315.955 49.4977 315.55 50.0516C315.169 50.5982 314.673 51.1655 314.061 51.7536C313.449 52.3417 312.823 52.8388 312.184 53.245C311.84 53.4555 311.607 53.6328 311.487 53.7768C311.335 53.9033 311.214 54.0884 311.123 54.3321C310.721 55.2646 310.572 55.9053 310.676 56.2544C310.749 56.5036 310.926 56.6412 311.205 56.6671C311.459 56.7004 311.772 56.6616 312.146 56.5508C312.645 56.4032 313.166 56.1945 313.71 55.925C314.246 55.6305 314.737 55.3632 315.181 55.1232C315.231 55.1084 315.289 55.0775 315.357 55.0304C317.009 54.1073 318.711 53.0336 320.463 51.8095C322.233 50.553 323.802 49.3967 325.171 48.3406C325.972 47.7507 326.651 47.2512 327.208 46.8422L327.485 46.6788C327.61 46.6419 327.683 46.6609 327.705 46.7356C327.735 46.8354 327.652 46.9683 327.457 47.1345C326.656 47.7244 325.778 48.3776 324.825 49.094C321.733 51.474 318.604 53.6347 315.437 55.5761C314.865 55.9352 314.24 56.2966 313.562 56.6604C312.901 56.9918 312.271 57.2461 311.673 57.4233ZM338.313 37.8991C338.387 37.877 338.481 37.7814 338.594 37.6125C343.743 32.7517 347.583 28.9162 350.113 26.1059C352.636 23.2707 354.299 20.9206 355.102 19.0556C355.625 17.7077 355.798 16.7346 355.62 16.1363C355.502 15.7374 355.244 15.597 354.845 15.7152C353.524 16.1065 351.386 18.1362 348.432 21.8042C345.503 25.4648 342.671 29.6799 339.935 34.4494C338.744 36.5645 338.175 37.7094 338.227 37.8839L338.313 37.8991ZM326.529 50.2975C326.628 50.268 326.899 50.0386 327.342 49.6093C328.279 48.6537 329.173 47.6433 330.023 46.5778C330.581 45.8974 330.816 45.4076 330.727 45.1085C330.705 45.0337 330.644 45.0111 330.544 45.0406C330.125 45.2732 329.585 45.7856 328.925 46.5778C328.282 47.3376 327.697 48.1076 327.169 48.8877C326.641 49.6678 326.399 50.1327 326.443 50.2823C326.45 50.3072 326.479 50.3123 326.529 50.2975ZM332.109 63.3689C331.646 63.452 331.282 63.3698 331.019 63.1223C330.738 62.9072 330.468 62.499 330.209 61.898L330.132 61.6362C329.433 59.1857 330.727 53.3927 334.013 44.257C334.348 43.3716 334.511 42.9164 334.504 42.8915C334.404 42.921 333.288 44.1872 331.155 46.6901C328.302 50.0571 326.588 51.8255 326.015 51.9954C325.815 52.0545 325.606 52.0351 325.387 51.9372C325.136 51.8217 324.989 51.6892 324.944 51.5397C324.834 51.1657 325.008 50.5176 325.467 49.5953C325.901 48.6803 326.475 47.7372 327.191 46.766C328.355 45.2011 329.36 44.2931 330.208 44.0421C330.557 43.9387 330.882 43.9373 331.183 44.038C331.438 44.2605 331.581 44.4216 331.611 44.5213C331.64 44.6211 331.68 44.6635 331.73 44.6488C331.779 44.634 332.467 43.888 333.792 42.4109C334.737 41.4803 335.33 40.8299 335.573 40.4596C335.809 40.0645 336.122 39.4293 336.514 38.5541C338.273 34.6976 340.484 30.8564 343.147 27.0305C345.828 23.1723 348.449 19.9826 351.01 17.4613C352.472 16.0792 353.626 15.2627 354.474 15.0116C355.346 14.7531 355.916 15.0726 356.181 15.9701C356.477 16.9673 356.128 18.3993 355.135 20.2661C354.255 21.9639 352.823 23.9475 350.838 26.2168C348.845 28.4612 345.628 31.746 341.188 36.0712C338.704 38.4882 337.297 39.9626 336.966 40.4944C336.555 41.2127 335.871 42.839 334.914 45.3733C334.277 47.1617 333.665 48.9837 333.075 50.8395C331.385 56.3025 330.75 59.8802 331.17 61.5726C331.281 61.9465 331.4 62.2097 331.526 62.362C331.653 62.5144 331.878 62.5425 332.202 62.4465C332.651 62.3136 333.266 61.8737 334.048 61.1268C334.838 60.4049 336.082 59.1142 337.782 57.2549C343.779 50.6787 348.085 45.8512 350.698 42.7722C352.834 40.1872 354.001 38.8651 354.201 38.8061C354.25 38.7913 354.283 38.8088 354.298 38.8587C354.364 39.0831 352.539 41.3454 348.824 45.6458C339.669 56.3026 334.428 62.0446 333.101 62.8718C332.714 63.122 332.383 63.2877 332.109 63.3689ZM354.92 40.3013L355.047 40.1822C355.065 40.1499 355.066 40.1088 355.052 40.059C355.062 40.0017 355.059 39.9482 355.045 39.8983L355.011 39.7861C354.932 39.7012 354.867 39.6661 354.818 39.6809L354.716 39.7515C354.681 39.8161 354.679 39.8983 354.708 39.998L354.801 40.1739C354.855 40.2662 354.895 40.3087 354.92 40.3013ZM352.23 44.6775C352.355 44.6406 352.715 44.2085 353.31 43.3813L354.287 41.8718C354.287 41.8718 354.283 41.8593 354.276 41.8344C354.381 41.6405 354.46 41.4951 354.513 41.3982C354.54 41.3086 354.543 41.2264 354.521 41.1516C354.499 41.0769 354.439 41.0132 354.342 40.9605C354.184 40.7906 354.067 40.7167 353.992 40.7389C353.892 40.7684 353.75 40.9734 353.564 41.3538C353.346 41.7166 353.13 42.133 352.917 42.6029C352.704 43.0729 352.521 43.5068 352.367 43.9047C352.214 44.3027 352.152 44.5515 352.182 44.6512L352.23 44.6775ZM352.278 45.8021L352.166 45.8353C352.091 45.8575 352.013 45.8671 351.931 45.8644C351.824 45.869 351.738 45.8537 351.673 45.8186C351.43 45.7281 351.271 45.5583 351.197 45.309C350.901 44.3118 351.589 42.4676 353.259 39.7763C353.668 39.1402 353.979 38.6818 354.194 38.4012C354.434 38.1131 354.642 37.9432 354.816 37.8915C355.016 37.8325 355.248 37.8856 355.514 38.0509C355.726 38.1238 355.857 38.2476 355.909 38.4221C355.975 38.6464 355.949 39.061 355.83 39.6657C355.782 39.8698 355.755 40.054 355.75 40.2183C355.737 40.3577 355.734 40.4399 355.741 40.4648L355.752 40.5022C355.824 40.5622 355.971 40.6001 356.193 40.6158C356.432 40.5992 356.708 40.5715 357.022 40.5328C357.329 40.4691 357.607 40.4003 357.856 40.3265C358.205 40.2231 358.643 40.0528 359.169 39.8155C359.72 39.5709 360.573 39.1555 361.728 38.5693C362.883 37.9831 364.554 37.1223 366.739 35.9868L370.134 34.1271C370.368 34.0034 370.536 33.9268 370.635 33.8972C370.785 33.8529 370.855 33.8594 370.844 33.9166C370.859 33.9665 370.815 34.0473 370.713 34.159C370.635 34.2633 370.55 34.3427 370.458 34.3972C369.904 34.724 369.22 35.1163 368.407 35.5742C367.384 36.1484 366.272 36.7896 365.072 37.4976C364.72 37.6832 364.377 37.8526 364.043 38.0058C362.177 38.9382 360.758 39.643 359.788 40.1203C358.81 40.5726 358.022 40.8874 357.424 41.0646C356.925 41.2123 356.487 41.288 356.108 41.2916L355.38 41.3041C354.776 42.3778 354.205 43.3334 353.666 44.1707C353.121 44.9832 352.658 45.527 352.278 45.8021Z" fill="white"/>
</svg>
